<svg width="105" height="146" viewBox="0 0 105 146" fill="none" xmlns="http://www.w3.org/2000/svg">
<path d="M81.727 94.4796C83.4136 98.6572 85.1002 102.788 86.7764 106.924C88.4525 111.059 90.1339 115.2 91.8153 119.336C93.4967 123.472 95.178 127.608 96.8699 131.806C96.1493 131.733 95.5122 131.545 94.8647 131.42C94.2172 131.295 93.5593 131.154 92.9066 131.018L90.9537 130.61L89.0008 130.193L87.0479 129.78L85.142 129.394L83.1891 128.981L81.2362 128.569L79.278 128.156L77.3251 127.77L75.3774 127.373C75.2019 127.54 75.0539 127.734 74.9388 127.947L63.3937 145.07C63.2984 145.258 63.1608 145.42 62.9916 145.545L61.258 141.284C60.6732 139.848 60.0936 138.412 59.5088 136.981C58.9239 135.551 58.36 134.141 57.7804 132.725L56.0572 128.469C55.4724 127.033 54.8928 125.597 54.308 124.167C53.7232 122.736 53.1697 121.331 52.5692 119.895C52.4207 120.038 52.3126 120.219 52.2559 120.417L48.3448 129.676L41.8282 145.102C41.7603 145.263 41.682 145.42 41.5984 145.592C41.4 145.498 41.3426 145.321 41.2433 145.175C39.7917 142.96 38.3436 140.743 36.8989 138.522L29.8862 127.801C29.7713 127.624 29.646 127.451 29.5155 127.279L22.3409 128.684C19.9598 129.148 17.5735 129.618 15.1872 130.073C12.8009 130.527 10.4302 131.018 8.03872 131.451C8.01941 131.378 8.01642 131.301 8.02995 131.226C8.04348 131.151 8.07321 131.08 8.11704 131.018L10.7279 124.898C14.9052 115.025 19.0826 105.153 23.2599 95.2838C23.3487 95.0697 23.4322 94.8556 23.5314 94.6101C23.3487 94.5475 23.2025 94.4848 23.0563 94.4378C22.2152 94.1954 21.4936 93.6504 21.0302 92.9077C20.6736 92.3786 20.3776 91.8111 20.1478 91.2158C19.8919 90.5265 19.6622 89.8268 19.3959 89.127C19.2079 88.6362 19.0042 88.1557 18.7797 87.6858C18.3427 86.7432 17.5835 85.9876 16.6388 85.5552C16.0227 85.268 15.3804 85.033 14.7433 84.7771C14.1063 84.5212 13.3857 84.2967 12.7226 84.0199C12.2593 83.8222 11.8123 83.5882 11.3858 83.3202C10.6338 82.8419 10.0923 82.0949 9.87153 81.2314C9.68484 80.4793 9.58325 79.7085 9.56867 78.9337C9.5269 77.999 9.51123 77.059 9.44335 76.1295C9.40353 75.6806 9.32136 75.2365 9.19793 74.8031C9.05121 74.2163 8.75635 73.6769 8.34158 73.2365C7.9864 72.8535 7.60984 72.4909 7.2137 72.1504C6.74897 71.7587 6.24246 71.4036 5.76729 71.0224C5.29212 70.6412 4.83261 70.2861 4.39921 69.8788C4.07343 69.5681 3.77794 69.2272 3.51675 68.8605C3.0349 68.1752 2.81784 67.3385 2.90581 66.5054C2.99285 65.6455 3.16782 64.7969 3.42798 63.9727C3.65251 63.1946 3.87705 62.4061 4.07547 61.628C4.15389 61.2949 4.20626 60.9562 4.23212 60.615C4.31142 59.8024 4.14788 58.9846 3.76217 58.2651C3.48542 57.7429 3.17734 57.2207 2.85359 56.7298C2.52985 56.239 2.14867 55.7272 1.80926 55.2102C1.46985 54.6933 1.1931 54.1919 0.926799 53.6436C0.591839 52.9791 0.455851 52.2321 0.535174 51.4922C0.58659 51.0248 0.720975 50.5703 0.932018 50.1501C1.1757 49.6697 1.44201 49.1997 1.73094 48.7402C2.02335 48.2702 2.36276 47.8211 2.67084 47.3564C2.97892 46.8916 3.193 46.5104 3.48542 46.0822C3.84322 45.5168 4.07993 44.8833 4.18059 44.2218C4.28125 43.5603 4.24367 42.8851 4.07025 42.2388C3.87182 41.4346 3.63163 40.6409 3.40709 39.8419C3.16037 39.0516 2.9856 38.2407 2.88493 37.4189C2.77065 36.4892 3.02563 35.5517 3.59508 34.8079C3.89631 34.4329 4.22815 34.0836 4.58719 33.7635C4.96837 33.4084 5.39133 33.0951 5.79862 32.7713C6.20591 32.4476 6.6863 32.0925 7.12493 31.7269C7.3599 31.5337 7.58443 31.3249 7.81419 31.1212C8.30131 30.6883 8.69549 30.161 8.97283 29.5713C9.25018 28.9816 9.40492 28.3417 9.42769 27.6904C9.4799 26.7765 9.49034 25.8574 9.54778 24.9384C9.58433 24.3117 9.647 23.6799 9.74621 23.0584C9.83548 22.4664 10.0688 21.9053 10.4257 21.4245C10.7827 20.9437 11.2522 20.558 11.7931 20.3012C12.3019 20.0361 12.8249 19.799 13.3596 19.591C14.0436 19.3195 14.7486 19.0688 15.4483 18.8391C15.9899 18.6436 16.5139 18.4025 17.0148 18.1185C17.6878 17.7266 18.246 17.1647 18.6335 16.4892C18.9519 15.9248 19.2176 15.3322 19.4272 14.7189C19.6726 14.0401 19.9024 13.356 20.1634 12.6876C20.3313 12.2492 20.523 11.8204 20.7378 11.403C21.042 10.7852 21.5021 10.2575 22.0726 9.87192C22.6431 9.48637 23.3043 9.25632 23.9909 9.20452C24.6175 9.12619 25.2441 9.10008 25.876 9.08441C26.6488 9.08441 27.4425 9.03741 28.1996 8.97997C28.8585 8.95608 29.5057 8.7984 30.1017 8.51652C30.6978 8.23463 31.2303 7.83443 31.6668 7.34027C32.1054 6.81807 32.5232 6.29587 32.9409 5.77367C33.3586 5.25147 33.7241 4.72927 34.1523 4.24885C34.4689 3.87057 34.8184 3.52107 35.1967 3.20445C35.6064 2.86368 36.0851 2.61579 36.5998 2.47786C37.1145 2.33993 37.653 2.31524 38.1782 2.40549C39.062 2.556 39.9343 2.76712 40.7891 3.03735C41.4783 3.23579 42.1676 3.43944 42.8777 3.5961C43.5438 3.76567 44.239 3.78706 44.9142 3.65877C45.3917 3.55278 45.851 3.37681 46.277 3.13657C46.7992 2.83369 47.3214 2.50471 47.8435 2.1705C48.3657 1.83629 48.8879 1.42898 49.457 1.08433C49.9007 0.810274 50.3611 0.564355 50.8356 0.348026C51.3346 0.113366 51.8793 -0.00830078 52.4308 -0.00830078C52.9823 -0.00830078 53.5269 0.113366 54.026 0.348026C54.5733 0.587039 55.0976 0.875443 55.5925 1.20965C56.0729 1.5282 56.5429 1.86763 57.0232 2.18094C57.5036 2.49426 57.9579 2.79192 58.4435 3.06868C58.9702 3.38689 59.555 3.59696 60.1638 3.68662C60.7725 3.77628 61.393 3.74373 61.9891 3.59088C62.788 3.39244 63.5869 3.1679 64.3806 2.93813C65.1552 2.70647 65.9458 2.53193 66.746 2.41593C67.7186 2.26969 68.7096 2.51369 69.5031 3.09479C69.9254 3.39496 70.3095 3.7457 70.6466 4.13919C71.0017 4.56739 71.3463 5.01126 71.6909 5.44991C72.0356 5.88856 72.3228 6.28021 72.6569 6.6823C72.9076 6.98517 73.1791 7.27761 73.4611 7.55959C74.1558 8.25086 75.0549 8.69955 76.0249 8.83898C76.7383 8.93744 77.4564 8.99671 78.1763 9.01652C78.6984 9.01652 79.2206 9.01653 79.7428 9.05308C80.4493 9.07007 81.151 9.17532 81.8314 9.3664C82.6162 9.59593 83.2983 10.0882 83.7634 10.7607C84.1163 11.2629 84.4024 11.8088 84.6146 12.3847C84.8757 13.074 85.1106 13.779 85.3665 14.4735C85.5545 14.9591 85.7477 15.4448 85.9618 15.9252C86.4286 17.0138 87.2961 17.8813 88.3846 18.3482C89.0112 18.625 89.6535 18.8704 90.2905 19.1054C90.9276 19.3404 91.5438 19.5545 92.1599 19.8052C92.4919 19.9424 92.8146 20.1012 93.1259 20.2804C93.6538 20.5616 94.1077 20.9637 94.4507 21.4537C94.7938 21.9438 95.0161 22.5079 95.0997 23.1002C95.2248 23.9564 95.2928 24.8199 95.3034 25.6851C95.3295 26.4057 95.3608 27.1264 95.413 27.8418C95.447 28.4567 95.603 29.0588 95.872 29.6128C96.1409 30.1669 96.5174 30.6619 96.9795 31.069C97.4234 31.4659 97.8829 31.8418 98.3476 32.2126C98.8123 32.5834 99.3554 32.9698 99.8358 33.3823C100.261 33.7418 100.663 34.129 101.037 34.5416C101.353 34.8898 101.597 35.298 101.753 35.742C101.909 36.186 101.974 36.6568 101.945 37.1265C101.915 37.7557 101.814 38.3794 101.642 38.9855C101.434 39.7323 101.204 40.4738 100.995 41.2153C100.751 41.9899 100.618 42.7951 100.598 43.607C100.603 44.1442 100.71 44.6756 100.911 45.1736C101.166 45.7718 101.48 46.3422 101.851 46.8759C102.253 47.4712 102.682 48.0561 103.068 48.6619C103.371 49.1475 103.653 49.654 103.914 50.171C104.131 50.6065 104.263 51.08 104.3 51.5653C104.353 52.1616 104.254 52.7615 104.013 53.3094C103.806 53.788 103.567 54.252 103.298 54.6985C102.984 55.2207 102.619 55.7168 102.28 56.2285C101.987 56.6619 101.705 57.1006 101.418 57.5392C101.02 58.1439 100.757 58.8273 100.647 59.5428C100.537 60.2584 100.583 60.9892 100.781 61.6855C100.979 62.4531 101.214 63.2103 101.418 63.9727C101.58 64.5628 101.731 65.1581 101.862 65.7534C101.969 66.2847 101.985 66.8304 101.909 67.367C101.823 67.9592 101.582 68.5179 101.209 68.9858C100.852 69.4629 100.434 69.8912 99.9663 70.26C99.4441 70.6882 98.8802 71.0955 98.3476 71.5237C97.815 71.9519 97.3711 72.3227 96.9064 72.7457C96.0306 73.5475 95.4991 74.6572 95.4235 75.8423C95.3712 76.4689 95.3451 77.1008 95.3138 77.7274C95.2773 78.4481 95.2564 79.1687 95.2094 79.8893C95.1713 80.4112 95.0642 80.9257 94.8908 81.4194C94.6662 82.0908 94.2417 82.6775 93.6742 83.1009C93.1943 83.4576 92.667 83.7458 92.1077 83.9573C91.4393 84.2184 90.7553 84.4481 90.0869 84.7092C89.4185 84.9703 88.8441 85.1896 88.2384 85.4664C87.2581 85.907 86.4726 86.6908 86.0297 87.6701C85.7477 88.2915 85.5075 88.9338 85.2569 89.5709C85.0062 90.208 84.7869 90.8921 84.5206 91.5448C84.3537 91.9422 84.1601 92.3277 83.941 92.6989C83.5253 93.4238 82.8669 93.9787 82.0821 94.2655C81.9567 94.349 81.8784 94.4117 81.727 94.4796ZM91.1887 51.9674C91.2021 44.2957 88.9407 36.7924 84.6906 30.4058C80.4404 24.0193 74.3922 19.0364 67.3105 16.087C60.2289 13.1376 52.4319 12.3542 44.9051 13.8358C37.3784 15.3174 30.4599 18.9975 25.0242 24.4108C19.5886 29.8242 15.8799 36.7277 14.367 44.2487C12.8541 51.7696 13.6049 59.5703 16.5246 66.6646C19.4442 73.7589 24.4016 79.8282 30.7699 84.1052C37.1383 88.3823 44.6317 90.675 52.3029 90.6936C62.5939 90.713 72.4714 86.6444 79.7635 79.3822C87.0556 72.1201 91.1651 62.259 91.1887 51.9674Z" fill="#BCA184" fill-opacity="0.8"/>
<path d="M87.5074 51.936C87.5053 58.8792 85.4433 65.6657 81.5825 71.4364C77.7218 77.2071 72.2357 81.7026 65.8189 84.3536C59.4021 87.0047 52.3431 87.6922 45.5353 86.3292C38.7276 84.9661 32.4774 81.6138 27.5757 76.6965C22.6741 71.7792 19.3415 65.5181 17.9998 58.7057C16.6582 51.8934 17.3677 44.8361 20.0387 38.4272C22.7097 32.0183 27.222 26.5461 33.0044 22.7031C38.7868 18.8602 45.5794 16.8194 52.5222 16.839C61.8139 16.8584 70.7179 20.5658 77.2778 27.1467C83.8378 33.7276 87.5171 42.6437 87.5074 51.936ZM64.4067 30.5258C64.2569 30.6679 64.1316 30.8337 64.036 31.0167L51.8277 49.8159L45.1492 60.1032C45.0656 60.2285 45.0186 60.4008 44.815 60.4635L43.7445 59.1841L42.601 57.8734L41.5566 56.5888L40.4444 55.2624C40.0841 54.8342 39.7291 54.406 39.3635 53.983C38.998 53.56 38.6534 53.0848 38.2565 52.7036C38.1991 52.7036 38.1782 52.7036 38.1678 52.7036C38.1082 52.7442 38.0507 52.7878 37.9955 52.8342L30.5546 60.2964C30.5517 60.3137 30.5517 60.3313 30.5546 60.3486C30.5517 60.3799 30.5517 60.4113 30.5546 60.4426L31.0767 60.8812L39.7238 68.145C41.6454 69.7534 43.56 71.3618 45.4677 72.9701C45.6066 73.1298 45.7875 73.2474 45.9898 73.3096L74.1869 37.9515C74.2389 37.881 74.2844 37.8058 74.3226 37.727C74.0146 37.4293 65.0124 30.907 64.3806 30.5258H64.4067Z" fill="#BCA184" fill-opacity="0.8"/>
</svg>
