<svg width="449" height="93" viewBox="0 0 449 93" fill="none" xmlns="http://www.w3.org/2000/svg">
<path d="M102.028 66V30.3555L104.616 29.1348H120.095V29.3789L118.117 33.5781H106.911V45.3457H120.095V45.5898L118.117 49.7891H106.911V61.5566H124.172V61.8008L122.194 66H102.028ZM130.3 66.9766V40.8535C130.3 37.3379 131.398 34.4489 133.596 32.1865C135.907 29.8265 138.918 28.6465 142.629 28.6465C145.982 28.6465 148.838 29.8265 151.198 32.1865C151.784 32.7725 152.224 33.3421 152.517 33.8955C152.891 33.3258 153.347 32.7806 153.884 32.2598C156.341 29.8509 159.182 28.6465 162.404 28.6465C166.05 28.6465 169.061 29.8265 171.438 32.1865C173.635 34.3675 174.733 37.2565 174.733 40.8535V64.7793L170.095 66.9766H169.851V40.8535C169.851 38.6725 169.265 36.9066 168.093 35.5557C166.644 33.8792 164.748 33.041 162.404 33.041C160.061 33.041 158.164 33.8792 156.716 35.5557C155.544 36.9066 154.958 38.6725 154.958 40.8535V64.7793L150.319 66.9766H150.075V40.8535C150.075 38.6725 149.489 36.9066 148.317 35.5557C146.869 33.8792 144.973 33.041 142.629 33.041C140.285 33.041 138.389 33.8792 136.94 35.5557C135.769 36.9066 135.183 38.6725 135.183 40.8535V64.7793L130.544 66.9766H130.3ZM189.382 54.2812C189.382 56.4622 189.968 58.2282 191.14 59.5791C192.588 61.2555 194.484 62.0938 196.828 62.0938C199.172 62.0938 201.068 61.2555 202.517 59.5791C203.688 58.2282 204.274 56.4622 204.274 54.2812V40.8535C204.274 38.6725 203.688 36.9066 202.517 35.5557C201.068 33.8792 199.172 33.041 196.828 33.041C194.484 33.041 192.588 33.8792 191.14 35.5557C189.968 36.9066 189.382 38.6725 189.382 40.8535V54.2812ZM184.499 54.2812V40.8535C184.499 37.3216 185.598 34.4326 187.795 32.1865C190.106 29.8265 193.117 28.6465 196.828 28.6465C200.539 28.6465 203.55 29.8265 205.861 32.1865C208.059 34.4163 209.157 37.3053 209.157 40.8535V54.2812C209.157 57.8132 208.059 60.7021 205.861 62.9482C203.55 65.3083 200.539 66.4883 196.828 66.4883C193.117 66.4883 190.106 65.3083 187.795 62.9482C185.598 60.7021 184.499 57.8132 184.499 54.2812ZM220.949 66.9766V33.5781H210.5V33.334L212.478 29.1348H236.281V29.3789L234.304 33.5781H225.832V64.7793L221.193 66.9766H220.949ZM238.845 66.9766V30.3555L243.483 28.1582H243.728V64.7793L239.089 66.9766H238.845ZM253.493 66.9766V40.8535C253.493 37.3379 254.592 34.4489 256.789 32.1865C259.1 29.8265 262.111 28.6465 265.822 28.6465C269.484 28.6465 272.495 29.8265 274.855 32.1865C277.053 34.3675 278.151 37.2565 278.151 40.8535V64.7793L273.513 66.9766H273.269V40.8535C273.269 38.6725 272.683 36.9066 271.511 35.5557C270.062 33.8792 268.166 33.041 265.822 33.041C263.479 33.041 261.582 33.8792 260.134 35.5557C258.962 36.9066 258.376 38.6725 258.376 40.8535V64.7793L253.737 66.9766H253.493ZM312.575 45.3457V54.2812C312.575 57.8132 311.477 60.7021 309.279 62.9482C306.968 65.3083 303.957 66.4883 300.246 66.4883C296.535 66.4883 293.524 65.3083 291.213 62.9482C289.016 60.7021 287.917 57.8132 287.917 54.2812V40.8535C287.917 37.3216 289.016 34.4326 291.213 32.1865C293.524 29.8265 296.535 28.6465 300.246 28.6465C304.087 28.6465 307.098 29.8265 309.279 32.1865C311.477 34.5465 312.575 37.2728 312.575 40.3652L307.937 42.5625H307.692V40.8535C307.692 38.6725 307.106 36.9066 305.935 35.5557C304.486 33.8792 302.59 33.041 300.246 33.041C297.902 33.041 296.006 33.8792 294.558 35.5557C293.386 36.9066 292.8 38.6725 292.8 40.8535V54.2812C292.8 56.4622 293.386 58.2282 294.558 59.5791C296.006 61.2555 297.902 62.0938 300.246 62.0938C302.59 62.0938 304.486 61.2555 305.935 59.5791C307.106 58.2282 307.692 56.625 307.692 54.7695V49.7891H299.196V49.5449L301.174 45.3457H312.575ZM349.562 66.9766L337.111 30.1602L341.335 28.1582H341.579L351.687 58.8223L361.232 28.1582H361.477L365.7 30.1602L354.03 64.9746L349.807 66.9766H349.562ZM375.612 54.2812C375.612 56.4622 376.198 58.2282 377.37 59.5791C378.819 61.2555 380.715 62.0938 383.059 62.0938C385.402 62.0938 387.299 61.2555 388.747 59.5791C389.919 58.2282 390.505 56.4622 390.505 54.2812V40.8535C390.505 38.6725 389.919 36.9066 388.747 35.5557C387.299 33.8792 385.402 33.041 383.059 33.041C380.715 33.041 378.819 33.8792 377.37 35.5557C376.198 36.9066 375.612 38.6725 375.612 40.8535V54.2812ZM370.729 54.2812V40.8535C370.729 37.3216 371.828 34.4326 374.025 32.1865C376.337 29.8265 379.348 28.6465 383.059 28.6465C386.77 28.6465 389.781 29.8265 392.092 32.1865C394.289 34.4163 395.388 37.3053 395.388 40.8535V54.2812C395.388 57.8132 394.289 60.7021 392.092 62.9482C389.781 65.3083 386.77 66.4883 383.059 66.4883C379.348 66.4883 376.337 65.3083 374.025 62.9482C371.828 60.7021 370.729 57.8132 370.729 54.2812ZM405.153 66.9766V30.3555L409.792 28.1582H410.036V64.7793L405.397 66.9766H405.153ZM419.802 66V30.3555L422.39 29.1348H431.643C435.354 29.1348 438.365 30.3148 440.676 32.6748C442.873 34.9046 443.972 37.7936 443.972 41.3418V53.793C443.972 57.3249 442.873 60.2139 440.676 62.46C438.365 64.82 435.354 66 431.643 66H419.802ZM424.685 61.6055H431.643C433.986 61.6055 435.882 60.7673 437.331 59.0908C438.503 57.7399 439.089 55.974 439.089 53.793V41.3418C439.089 39.1608 438.503 37.3949 437.331 36.0439C435.882 34.3675 433.986 33.5293 431.643 33.5293H424.685V61.6055Z" fill="#BCA184"/>
<ellipse cx="86.4002" cy="45.2886" rx="0.363094" ry="0.36424" fill="#BCA184"/>
<path d="M85.274 44.1508C79.4482 38.2902 52.7995 11.5575 48.5566 7.31754" stroke="#BCA184" stroke-width="0.89" stroke-miterlimit="10" stroke-linecap="round"/>
<ellipse cx="48.0184" cy="6.76097" rx="0.363094" ry="0.36424" fill="#BCA184"/>
<path d="M46.8922 7.8905L10.1748 44.7238" stroke="#BCA184" stroke-width="0.89" stroke-miterlimit="10" stroke-linecap="round"/>
<ellipse cx="9.62774" cy="45.2722" rx="0.363094" ry="0.36424" fill="#BCA184"/>
<path d="M9.62793 45.2886L48.0179 86.149L86.408 45.2886L48.0179 81.9336L9.62793 45.2886Z" fill="#BCA184" stroke="#BCA184" stroke-width="0.59" stroke-miterlimit="10"/>
<path d="M47.2106 42.8985H53.4444C54.2604 40.7704 53.0201 38.3803 51.1272 37.3081C47.227 34.9344 42.0131 37.9629 41.1237 42.2192C39.1655 50.8545 49.0955 56.6496 56.3002 52.4752C62.6401 49.2011 64.3944 40.6558 60.9103 34.6397C52.1063 20.8722 32.1973 28.0915 31.7322 43.7907C31.3161 52.6471 38.17 60.8732 46.7456 62.6166C62.7625 65.8907 75.7115 50.0769 70.8729 34.787C64.4025 14.6515 37.5989 12.687 26.6489 30.0887C17.951 43.7989 23.8095 62.3793 38.2598 69.3367C44.8038 72.494 52.2858 73.0922 59.2458 71.0146C66.1813 68.9929 62.9583 68.3135 62.9583 68.3135" stroke="#BCA184" stroke-width="1.19" stroke-miterlimit="10"/>
<ellipse cx="8.82357" cy="44.7672" rx="0.379231" ry="0.380797" fill="#BCA184"/>
</svg>
