<svg width="399" height="75" viewBox="0 0 399 75" fill="none" xmlns="http://www.w3.org/2000/svg">
<path d="M106.142 51V23.1973L108.161 22.2451H120.234V22.4355L118.691 25.7109H109.951V34.8896H120.234V35.0801L118.691 38.3555H109.951V47.5342H123.414V47.7246L121.872 51H106.142ZM128.194 51.7617V31.3857C128.194 28.6436 129.051 26.3901 130.765 24.6255C132.567 22.7847 134.916 21.8643 137.811 21.8643C140.426 21.8643 142.654 22.7847 144.495 24.6255C144.952 25.0825 145.294 25.5269 145.523 25.9585C145.815 25.5142 146.17 25.0889 146.589 24.6826C148.506 22.8037 150.722 21.8643 153.235 21.8643C156.079 21.8643 158.428 22.7847 160.281 24.6255C161.995 26.3267 162.852 28.5801 162.852 31.3857V50.0479L159.234 51.7617H159.043V31.3857C159.043 29.6846 158.586 28.3071 157.672 27.2534C156.542 25.9458 155.063 25.292 153.235 25.292C151.407 25.292 149.928 25.9458 148.798 27.2534C147.884 28.3071 147.427 29.6846 147.427 31.3857V50.0479L143.809 51.7617H143.619V31.3857C143.619 29.6846 143.162 28.3071 142.248 27.2534C141.118 25.9458 139.639 25.292 137.811 25.292C135.982 25.292 134.503 25.9458 133.374 27.2534C132.459 28.3071 132.002 29.6846 132.002 31.3857V50.0479L128.384 51.7617H128.194ZM174.278 41.8594C174.278 43.5605 174.735 44.938 175.649 45.9917C176.779 47.2993 178.258 47.9531 180.086 47.9531C181.914 47.9531 183.393 47.2993 184.523 45.9917C185.437 44.938 185.894 43.5605 185.894 41.8594V31.3857C185.894 29.6846 185.437 28.3071 184.523 27.2534C183.393 25.9458 181.914 25.292 180.086 25.292C178.258 25.292 176.779 25.9458 175.649 27.2534C174.735 28.3071 174.278 29.6846 174.278 31.3857V41.8594ZM170.469 41.8594V31.3857C170.469 28.6309 171.326 26.3774 173.04 24.6255C174.843 22.7847 177.191 21.8643 180.086 21.8643C182.98 21.8643 185.329 22.7847 187.132 24.6255C188.846 26.3647 189.703 28.6182 189.703 31.3857V41.8594C189.703 44.6143 188.846 46.8677 187.132 48.6196C185.329 50.4604 182.98 51.3809 180.086 51.3809C177.191 51.3809 174.843 50.4604 173.04 48.6196C171.326 46.8677 170.469 44.6143 170.469 41.8594ZM198.9 51.7617V25.7109H190.75V25.5205L192.292 22.2451H210.859V22.4355L209.317 25.7109H202.709V50.0479L199.091 51.7617H198.9ZM212.859 51.7617V23.1973L216.477 21.4834H216.667V50.0479L213.049 51.7617H212.859ZM224.285 51.7617V31.3857C224.285 28.6436 225.142 26.3901 226.855 24.6255C228.658 22.7847 231.007 21.8643 233.901 21.8643C236.758 21.8643 239.106 22.7847 240.947 24.6255C242.661 26.3267 243.518 28.5801 243.518 31.3857V50.0479L239.9 51.7617H239.709V31.3857C239.709 29.6846 239.252 28.3071 238.338 27.2534C237.208 25.9458 235.729 25.292 233.901 25.292C232.073 25.292 230.594 25.9458 229.464 27.2534C228.55 28.3071 228.093 29.6846 228.093 31.3857V50.0479L224.475 51.7617H224.285ZM270.369 34.8896V41.8594C270.369 44.6143 269.512 46.8677 267.798 48.6196C265.995 50.4604 263.646 51.3809 260.752 51.3809C257.857 51.3809 255.509 50.4604 253.706 48.6196C251.992 46.8677 251.135 44.6143 251.135 41.8594V31.3857C251.135 28.6309 251.992 26.3774 253.706 24.6255C255.509 22.7847 257.857 21.8643 260.752 21.8643C263.748 21.8643 266.097 22.7847 267.798 24.6255C269.512 26.4663 270.369 28.5928 270.369 31.0049L266.75 32.7188H266.56V31.3857C266.56 29.6846 266.103 28.3071 265.189 27.2534C264.059 25.9458 262.58 25.292 260.752 25.292C258.924 25.292 257.445 25.9458 256.315 27.2534C255.401 28.3071 254.944 29.6846 254.944 31.3857V41.8594C254.944 43.5605 255.401 44.938 256.315 45.9917C257.445 47.2993 258.924 47.9531 260.752 47.9531C262.58 47.9531 264.059 47.2993 265.189 45.9917C266.103 44.938 266.56 43.6875 266.56 42.2402V38.3555H259.933V38.165L261.476 34.8896H270.369ZM299.219 51.7617L289.507 23.0449L292.801 21.4834H292.992L300.875 45.4014L308.321 21.4834H308.512L311.806 23.0449L302.704 50.2002L299.409 51.7617H299.219ZM319.538 41.8594C319.538 43.5605 319.995 44.938 320.909 45.9917C322.039 47.2993 323.518 47.9531 325.346 47.9531C327.174 47.9531 328.653 47.2993 329.783 45.9917C330.697 44.938 331.154 43.5605 331.154 41.8594V31.3857C331.154 29.6846 330.697 28.3071 329.783 27.2534C328.653 25.9458 327.174 25.292 325.346 25.292C323.518 25.292 322.039 25.9458 320.909 27.2534C319.995 28.3071 319.538 29.6846 319.538 31.3857V41.8594ZM315.729 41.8594V31.3857C315.729 28.6309 316.586 26.3774 318.3 24.6255C320.103 22.7847 322.451 21.8643 325.346 21.8643C328.24 21.8643 330.589 22.7847 332.392 24.6255C334.105 26.3647 334.962 28.6182 334.962 31.3857V41.8594C334.962 44.6143 334.105 46.8677 332.392 48.6196C330.589 50.4604 328.24 51.3809 325.346 51.3809C322.451 51.3809 320.103 50.4604 318.3 48.6196C316.586 46.8677 315.729 44.6143 315.729 41.8594ZM342.58 51.7617V23.1973L346.198 21.4834H346.388V50.0479L342.77 51.7617H342.58ZM354.005 51V23.1973L356.024 22.2451H363.241C366.136 22.2451 368.484 23.1655 370.287 25.0063C372.001 26.7456 372.858 28.999 372.858 31.7666V41.4785C372.858 44.2334 372.001 46.4868 370.287 48.2388C368.484 50.0796 366.136 51 363.241 51H354.005ZM357.814 47.5723H363.241C365.069 47.5723 366.548 46.9185 367.678 45.6108C368.592 44.5571 369.049 43.1797 369.049 41.4785V31.7666C369.049 30.0654 368.592 28.688 367.678 27.6343C366.548 26.3267 365.069 25.6729 363.241 25.6729H357.814V47.5723Z" fill="#33383D"/>
<ellipse cx="73.2496" cy="36.5232" rx="0.30783" ry="0.293742" fill="#33383D"/>
<path d="M72.2949 35.6056C67.3558 30.8794 44.7632 9.32066 41.1661 5.90137" stroke="#33383D" stroke-width="0.89" stroke-miterlimit="10" stroke-linecap="round" stroke-dasharray="1.78 1.78"/>
<path d="M39.7549 6.36328L8.6261 36.0676" stroke="#33383D" stroke-width="0.89" stroke-miterlimit="10" stroke-linecap="round" stroke-dasharray="1.78 1.78"/>
<ellipse cx="8.16269" cy="36.5101" rx="0.30783" ry="0.293742" fill="#33383D"/>
<path d="M8.16272 36.5229L40.7097 69.4749L73.2566 36.5229L40.7097 66.0754L8.16272 36.5229Z" fill="#33383D" stroke="#33383D" stroke-width="0.59" stroke-miterlimit="10"/>
<path d="M40.0248 34.5956H45.3097C46.0015 32.8793 44.95 30.9519 43.3452 30.0871C40.0386 28.1729 35.6183 30.6152 34.8643 34.0477C33.2041 41.0117 41.6227 45.6852 47.7309 42.3187C53.1058 39.6783 54.5931 32.7869 51.6393 27.9352C44.1753 16.8324 27.2965 22.6545 26.9022 35.3151C26.5494 42.4573 32.3602 49.0913 39.6305 50.4973C53.2095 53.1376 64.1876 40.3846 60.0856 28.054C54.6 11.8157 31.8759 10.2315 22.5926 24.2651C15.2185 35.3217 20.1853 50.3058 32.4362 55.9166C37.9843 58.4629 44.3274 58.9453 50.2281 57.2698C56.108 55.6394 53.3756 55.0915 53.3756 55.0915" stroke="#33383D" stroke-width="1.19" stroke-miterlimit="10"/>
</svg>
