<svg width="145" height="144" viewBox="0 0 145 144" fill="none" xmlns="http://www.w3.org/2000/svg">
<path d="M72.4439 141.419C110.818 141.32 141.924 110.24 141.809 72.1094C141.763 53.742 134.409 36.1449 121.363 23.1889C108.318 10.233 90.6496 2.97936 72.2455 3.02364C33.9393 3.09139 2.79719 34.2912 2.9904 72.4117C3.1836 110.532 34.3048 141.524 72.4439 141.419Z" stroke="#BCA184" stroke-opacity="0.8" stroke-width="5" stroke-miterlimit="10"/>
<path d="M9.59581 71.9898C9.22508 106.071 37.1349 134.416 71.4779 134.822C106.552 135.239 134.603 107.817 135.182 72.537C135.757 38.6064 107.507 9.87668 73.1749 9.50668C38.2889 9.13147 9.98222 36.9336 9.59581 71.9898Z" stroke="#BCA184" stroke-opacity="0.8" stroke-width="3.64" stroke-miterlimit="10"/>
<path d="M9.59581 71.9898C9.98222 36.9336 38.315 9.13147 73.2063 9.50668C107.523 9.87668 135.788 38.6064 135.214 72.563C134.613 107.843 106.562 135.265 71.5092 134.848C37.1349 134.416 9.22508 106.071 9.59581 71.9898Z" stroke="#BCA184" stroke-opacity="0.8" stroke-width="3" stroke-miterlimit="10"/>
<path d="M84.8871 53.6046C85.3049 52.307 85.6025 51.4523 85.8532 50.5872C87.0541 46.5277 88.5214 42.5202 87.7277 38.1427C86.8348 33.2546 81.9839 28.3456 77.3993 27.7984C72.8146 27.2512 69.0185 29.8829 66.7053 35.3964C64.3921 40.9099 62.0841 46.486 59.6821 51.9891C59.3793 52.6822 58.5281 53.516 57.865 53.5525C56.6744 53.6671 55.369 54.1257 54.2986 52.5832C53.2696 51.074 51.8615 49.861 50.2152 49.0656C44.1424 46.3818 37.6467 50.8582 37.5161 57.7475C37.4012 63.6936 37.4848 69.6449 37.4848 75.5961C37.4848 84.1687 37.443 92.736 37.4848 101.309C37.5161 105.811 40.2053 109.428 44.1946 110.631C45.9714 111.195 47.886 111.149 49.6336 110.501C51.3813 109.853 52.8616 108.641 53.8391 107.057C54.7059 105.691 55.6405 105.399 57.1078 105.405C69.5981 105.45 82.0901 105.45 94.5838 105.405C101.231 105.405 105.549 101.882 106.917 95.4198C108.86 86.1541 110.839 76.8937 112.661 67.602C112.998 65.7953 112.95 63.938 112.52 62.151C111.272 57.0492 107.022 53.7296 101.69 53.615C96.2234 53.5108 90.7615 53.6046 84.8871 53.6046Z" stroke="#BCA184" stroke-opacity="0.8" stroke-width="3" stroke-miterlimit="10"/>
<path d="M84.8871 53.6045C90.7614 53.6045 96.2233 53.5107 101.675 53.6045C107.006 53.7191 111.257 57.0387 112.505 62.1405C112.935 63.9275 112.983 65.7848 112.645 67.5915C110.839 76.8832 108.86 86.1436 106.902 95.4093C105.549 101.871 101.215 105.384 94.568 105.394C82.0778 105.394 69.5858 105.394 57.0921 105.394C55.6248 105.394 54.6901 105.681 53.8233 107.046C52.8522 108.633 51.3777 109.85 49.6341 110.504C47.8904 111.158 45.9777 111.212 44.1998 110.657C40.2104 109.454 37.5212 105.837 37.4899 101.334C37.4273 92.762 37.4899 84.1946 37.4899 75.6221C37.4899 69.6708 37.4064 63.7196 37.5212 57.7735C37.6518 50.8842 44.1475 46.4077 50.2204 49.0915C51.8666 49.887 53.2747 51.1 54.3037 52.6091C55.3741 54.1725 56.6796 53.6931 57.8701 53.5784C58.5333 53.5159 59.3844 52.6821 59.6873 52.0151C62.0892 46.512 64.3868 40.9567 66.7104 35.4224C69.034 29.888 72.7519 27.272 77.4044 27.8243C82.0569 28.3767 86.84 33.2805 87.7329 38.1687C88.5266 42.5462 87.0593 46.5536 85.8583 50.6132C85.6024 51.4522 85.3048 52.3069 84.8871 53.6045ZM55.865 99.0467C56.1883 99.1005 56.5142 99.1371 56.8414 99.1562C69.6815 99.1562 82.5269 99.1562 95.3722 99.1562C98.3851 99.1562 100.254 97.4677 100.907 94.3201C102.763 85.3984 104.601 76.4733 106.421 67.5446C107.507 62.2396 105.34 59.6339 99.8054 59.6339C93.6334 59.6339 87.4561 59.6339 81.2841 59.6339C77.9631 59.6339 76.8509 57.9976 77.8796 54.8187C78.9918 51.3949 80.1928 47.992 81.1013 44.5108C81.8846 41.5039 81.9107 38.4814 79.7072 35.8653C77.2477 32.9418 74.2818 33.3327 72.7884 36.8555C70.3342 42.6452 67.8122 48.4089 65.546 54.2767C64.1779 57.8204 61.8229 59.6391 58.0842 59.8163C57.3793 59.8476 56.6796 59.9205 55.865 59.9883V99.0467ZM49.599 79.4263H49.4945C49.4945 72.1305 49.4945 64.8348 49.4945 57.539C49.4945 55.762 48.5912 54.6936 46.8837 54.5008C45.077 54.2976 44.1371 55.4493 43.8238 57.0752C43.6712 58.0541 43.61 59.045 43.641 60.0352C43.641 73.0529 43.641 86.0724 43.641 99.0936C43.6288 99.9413 43.6689 100.789 43.7611 101.632C43.9752 103.299 44.6018 104.691 46.5652 104.758C48.069 104.821 49.364 103.346 49.5624 101.46C49.6025 100.896 49.6112 100.33 49.5885 99.7659C49.6094 92.9947 49.6164 86.2183 49.6094 79.4367L49.599 79.4263Z" fill="#BCA184" fill-opacity="0.8" stroke="#BCA184" stroke-opacity="0.8" stroke-miterlimit="10"/>
<path d="M55.865 99.0465V59.988C56.6796 59.9203 57.3793 59.8473 58.0842 59.816C61.8229 59.6389 64.1779 57.8201 65.546 54.2765C67.8122 48.4086 70.3342 42.6449 72.7884 36.8552C74.2818 33.3324 77.2477 32.9415 79.7072 35.8651C81.9107 38.4707 81.8846 41.5036 81.1013 44.5105C80.1928 47.9917 79.0127 51.3946 77.8796 54.8184C76.8352 57.9973 77.9631 59.6232 81.2841 59.6336C87.4561 59.6336 93.6334 59.6336 99.8054 59.6336C105.34 59.6336 107.507 62.208 106.421 67.5287C104.604 76.4574 102.766 85.3825 100.907 94.3042C100.254 97.431 98.3851 99.1351 95.3722 99.1403C82.5269 99.1715 69.6815 99.1403 56.8414 99.1403C56.5145 99.1263 56.1886 99.095 55.865 99.0465Z" stroke="#BCA184" stroke-opacity="0.8" stroke-width="3" stroke-miterlimit="10"/>
</svg>
