<svg width="114" height="143" viewBox="0 0 114 143" fill="none" xmlns="http://www.w3.org/2000/svg">
<path d="M16.1842 44.9978V44.2126C16.1842 43.0138 16.1476 41.8151 16.1528 40.6163C16.1203 33.6538 18.1072 26.8313 21.8729 20.9756C26.4259 13.6939 33.3958 8.24735 41.5611 5.59064C42.3342 5.35294 43.0478 4.95321 43.6544 4.41806C44.117 4.01012 44.6265 3.65867 45.1721 3.37112C47.6352 2.08023 50.228 1.05374 52.9071 0.30879C53.3122 0.182822 53.7402 0.148471 54.1601 0.208222C54.5801 0.267974 54.9815 0.420334 55.3354 0.654283C55.7996 0.931112 56.2422 1.24259 56.6595 1.58607C57.2247 2.05196 57.7532 2.5702 58.3028 3.05703C58.5278 3.25595 58.7685 3.43393 59.0302 3.63808C59.3337 3.44963 59.5849 3.28212 59.8466 3.11461C60.084 2.94104 60.3733 2.85325 60.6671 2.86561C60.9609 2.87797 61.2418 2.98976 61.4637 3.18266C61.9771 3.59983 62.6239 3.81734 63.285 3.79513C67.5413 3.94402 71.7314 4.89414 75.6358 6.59571C86.1027 11.2023 93.2253 18.9235 96.7422 29.8694C97.9746 33.7853 98.5148 37.8862 98.3384 41.9878C98.3018 42.951 98.2599 43.9089 98.2233 44.8721C98.5227 45.1256 98.8838 45.2954 99.2699 45.3642C101.009 45.925 102.554 46.9646 103.729 48.3637C105.065 49.9441 105.816 51.9372 105.854 54.0068C105.902 55.4037 105.864 56.8024 105.738 58.1946C105.451 61.3354 103.786 63.5759 101.154 65.1725C99.7039 65.9992 98.0753 66.4626 96.4073 66.523C96.1456 66.523 95.8839 66.5754 95.5437 66.6068C95.3815 67.0413 95.2036 67.4653 95.0675 67.8998C93.6451 72.3278 91.4009 76.448 88.4525 80.0444C84.3702 85.023 79.1627 88.9591 73.2597 91.5276C67.3568 94.0962 60.9277 95.2236 54.5033 94.8168C39.9544 93.9112 27.0907 85.4676 20.8367 72.5901C20.0988 71.0646 19.4659 69.4905 18.9422 67.8788C18.8114 67.481 18.6701 67.0832 18.5236 66.6487C18.1782 66.6068 17.8799 66.5597 17.5815 66.5387C15.0098 66.4537 12.5711 65.3748 10.7781 63.5288C9.17196 61.9231 8.26367 59.7487 8.25037 57.4774C8.25037 56.3572 8.25037 55.2369 8.25037 54.1167C8.28177 50.7769 9.82039 48.3009 12.5732 46.5054C13.3568 46.0085 14.2082 45.6276 15.1009 45.3747L16.1842 44.9978ZM89.7556 46.6415C89.5462 46.6048 89.3997 46.5734 89.2322 46.5525C87.3534 46.3379 85.4746 46.1651 83.6011 45.9034C80.8954 45.5212 78.1793 45.1391 75.4893 44.6471C70.8263 43.7938 66.1686 42.9091 61.5265 41.9459C55.2464 40.6425 48.9349 39.2605 42.6444 37.8995C40.8755 37.5173 39.1118 37.0986 37.3482 36.6798C37.1296 36.6026 36.8908 36.6055 36.6742 36.6879C36.4577 36.7704 36.2773 36.927 36.1654 37.13C35.5583 38.0199 34.9199 38.8941 34.229 39.7473C32.8644 41.3776 31.3602 42.8857 29.7335 44.2544C27.9367 45.7725 26.1033 47.2487 24.2332 48.683C23.9654 48.8672 23.7374 49.1036 23.563 49.3779C23.3885 49.6522 23.2712 49.9589 23.2179 50.2796C23.1028 50.9654 23.0086 51.6511 22.8882 52.3369C22.4606 54.9339 22.42 57.58 22.7679 60.189C23.1554 63.4148 24.0288 66.5634 25.3584 69.5278C30.5918 81.2379 42.21 89.0272 55.4401 89.6449C58.6822 89.8088 61.931 89.502 65.0853 88.734C74.0658 86.5459 81.2042 81.6724 86.2754 73.9093C89.7169 68.6769 91.5191 62.5363 91.4512 56.2734C91.4512 55.2265 91.3308 54.1795 91.2366 53.1326C91.0531 51.2093 90.6671 49.3108 90.0853 47.4686C89.983 47.1861 89.8642 46.91 89.7294 46.6415H89.7556ZM96.7788 60.9899C96.8634 61.0368 96.9567 61.0661 97.0529 61.076C97.1492 61.0859 97.2464 61.0762 97.3388 61.0475C98.9088 60.5502 99.9555 59.5661 100.254 57.9328C100.508 56.4096 100.508 54.8548 100.254 53.3315C100.097 52.4438 99.6017 51.6517 98.8722 51.1224C98.4309 50.704 97.8608 50.4475 97.2551 50.3948C96.9662 50.7933 96.7638 51.2479 96.6611 51.7293C96.5583 52.2108 96.5574 52.7084 96.6584 53.1901C96.928 55.4085 96.928 57.6513 96.6584 59.8697C96.5556 60.2449 96.5986 60.6451 96.7788 60.9899ZM17.1786 50.3634C17.0063 50.3294 16.8303 50.3189 16.6552 50.332C15.844 50.5212 15.1142 50.9644 14.572 51.597C14.0299 52.2297 13.7037 53.0188 13.6408 53.8497C13.5937 54.9647 13.6042 56.085 13.6408 57.2C13.6425 58.0736 13.9314 58.9225 14.4628 59.6159C14.9943 60.3092 15.7389 60.8086 16.582 61.037C16.8182 61.0674 17.0574 61.0674 17.2937 61.037C17.3084 60.2468 17.2717 59.4564 17.1838 58.6709C17.0425 57.2908 17.0425 55.8999 17.1838 54.5198C17.2832 53.41 17.278 52.2898 17.2989 51.1748C17.2814 50.9014 17.2411 50.63 17.1786 50.3634Z" fill="#BCA184" fill-opacity="0.8"/>
<path d="M32.6068 90.9009C32.7162 91.1234 32.8072 91.3545 32.8789 91.5919C33.7407 96.1286 34.6024 100.679 35.4642 105.244C36.1184 108.699 36.7935 112.143 37.4477 115.593C38.1803 119.425 38.8973 123.257 39.6248 127.083C40.19 130.085 40.7569 133.082 41.3256 136.077C41.3319 136.114 41.3406 136.151 41.3518 136.187C41.6082 137.359 41.6187 137.37 42.7753 137.391H70.9363C71.3886 137.446 71.8477 137.394 72.276 137.239C72.7261 136.569 72.7157 135.804 72.8517 135.098C73.9507 129.455 75.0131 123.801 76.0912 118.153C77.4065 111.261 78.7201 104.359 80.032 97.4495C80.3774 95.6278 80.7071 93.7852 81.0525 91.9845C81.1153 91.6494 81.2357 91.3249 81.3351 90.9742C81.9971 90.8958 82.6676 90.9295 83.3186 91.0736C90.3138 92.0425 96.8477 95.1205 102.05 99.8975C107.252 104.675 110.875 110.924 112.437 117.813C113.017 120.416 113.312 123.076 113.316 125.743V140.589C113.316 142.51 113.473 142.358 111.595 142.358H2.31575C0.803289 142.358 0.745722 142.479 0.745722 140.751C0.745722 135.726 0.745722 130.701 0.745722 125.675C0.685599 117.64 3.41953 109.835 8.47948 103.594C13.5394 97.3535 20.6107 93.0662 28.4828 91.4662C29.2364 91.3197 29.9953 91.1679 30.7594 91.0579C31.3246 90.9794 31.8845 90.9585 32.6068 90.9009Z" fill="#BCA184" fill-opacity="0.8"/>
</svg>
