<svg width="105" height="139" viewBox="0 0 105 139" fill="none" xmlns="http://www.w3.org/2000/svg">
<path d="M56.2408 38.7011C59.1045 41.8062 60.8267 45.0953 61.3528 48.9407C61.4736 49.8897 61.53 50.8458 61.5216 51.8024C61.5216 79.5354 61.5216 107.268 61.5216 135.001C61.5449 135.427 61.5332 135.854 61.4868 136.278C61.387 136.888 61.0637 137.439 60.58 137.823C60.0964 138.207 59.4872 138.396 58.8713 138.355C58.2779 138.36 57.7037 138.145 57.2592 137.752C56.8148 137.358 56.5315 136.814 56.4641 136.224C56.4077 135.749 56.3961 135.27 56.4294 134.793V88.9553L48.7613 90.1328V134.549C48.7613 135.046 48.7911 135.513 48.7613 135.99C48.7118 136.624 48.4267 137.217 47.9624 137.651C47.4981 138.085 46.8882 138.329 46.2529 138.335C45.6175 138.342 45.0029 138.109 44.5302 137.684C44.0575 137.26 43.7609 136.673 43.6989 136.04C43.6791 135.667 43.6791 135.294 43.6989 134.922V52.3589C43.6791 51.9865 43.6791 51.6134 43.6989 51.241C43.7613 50.6192 44.0498 50.042 44.5095 49.6191C44.9692 49.1962 45.5681 48.9572 46.1923 48.9474C46.8165 48.9376 47.4226 49.1577 47.8953 49.5659C48.3681 49.9741 48.6745 50.542 48.7564 51.1615C48.7837 51.6398 48.7837 52.1191 48.7564 52.5974V84.4838C53.5855 85.4775 56.4244 83.1871 56.4244 78.4374C56.4244 69.8257 56.4244 61.2024 56.4244 52.5676C56.4244 44.4891 51.6995 39.3469 43.7088 38.706C42.0611 38.5719 41.0833 37.5832 41.1181 36.0828C41.1528 34.5824 42.1951 33.5986 43.8379 33.5986C49.6348 33.5986 55.4252 33.5986 61.2089 33.5986C62.9807 33.5986 64.0429 34.5923 64.0528 36.1225C64.0627 37.6528 63.0006 38.6514 61.2486 38.6862C60.4545 38.6862 59.6554 38.6862 58.8564 38.6862L56.2408 38.7011Z" fill="#BCA184" fill-opacity="0.8"/>
<path d="M87.052 79.5901C83.1658 79.5901 79.503 79.5901 75.8402 79.5901C70.5793 79.5901 66.6385 75.7397 66.6385 70.6472C66.6385 65.5547 70.5793 61.7042 75.8353 61.7042C79.4981 61.7042 83.1609 61.7042 87.052 61.7042C87.052 60.0995 87.052 58.5792 87.052 57.0639C87.052 55.1362 87.9602 54.0829 89.5335 54.0382C91.1069 53.9935 92.1094 55.1163 92.1193 57.1433C92.1193 59.3261 92.1193 61.5072 92.1193 63.6866C92.1193 65.9223 91.2607 66.7918 89.062 66.7967C84.6448 66.7967 80.2326 66.757 75.8204 66.7967C72.773 66.8414 70.9118 69.5541 72.0831 72.1426C72.369 72.8406 72.8611 73.4345 73.4936 73.8447C74.126 74.255 74.8686 74.462 75.6218 74.438C82.0045 74.4727 88.3871 74.5026 94.7647 74.438C97.3952 74.4082 99.6435 72.4904 99.6931 69.9019C99.8172 63.1997 100.075 56.4627 99.5045 49.8052C98.9437 43.2769 93.8961 39.1085 87.3398 38.711C86.1139 38.6365 85.1561 38.2738 84.6597 37.1013C83.9103 35.3326 85.1809 33.539 87.2555 33.6235C94.3478 33.8421 99.569 37.1659 102.939 43.3762C104.247 45.8191 104.917 48.5538 104.885 51.3255C104.885 57.2874 104.885 63.2494 104.885 69.2113C104.885 75.1733 100.447 79.5454 94.4868 79.5752H92.1293V134.311C92.1293 134.733 92.1293 135.16 92.1293 135.588C92.0796 137.336 91.0969 138.39 89.5435 138.37C87.99 138.35 87.0966 137.312 87.0619 135.662C87.0619 135.235 87.0619 134.813 87.0619 134.385V79.5901H87.052Z" fill="#BCA184" fill-opacity="0.8"/>
<path d="M13.0615 89.9739C11.2499 89.8099 9.63688 89.8397 8.09831 89.4771C5.87099 88.9887 3.87952 87.7477 2.45867 85.9625C1.03783 84.1774 0.274228 81.957 0.296245 79.6746C0.296245 70.0411 0.236688 60.4076 0.296245 50.7691C0.370693 41.5927 8.51521 33.5987 17.6673 33.5938C19.5731 33.5938 20.67 34.498 20.6898 36.0779C20.7097 37.6578 19.6972 38.562 17.9104 38.6813C10.4062 39.1781 5.40332 44.524 5.38843 52.0957C5.36362 60.7206 5.38843 69.3406 5.38843 77.9655C5.38843 83.1922 7.53747 85.105 13.0565 84.5783V82.904C13.0565 72.5766 13.0565 62.2492 13.0565 51.9218C13.0565 50.009 13.9846 48.9408 15.5827 48.9408C16.1987 48.9222 16.7995 49.1337 17.2683 49.534C17.7371 49.9344 18.0403 50.4951 18.1189 51.107C18.1612 51.5844 18.1712 52.0641 18.1487 52.5428V134.778C18.1487 135.101 18.1487 135.419 18.1487 135.737C18.0742 137.356 17.0568 138.38 15.5629 138.36C14.1434 138.36 13.1458 137.332 13.0813 135.811C13.0813 135.389 13.0813 134.962 13.0813 134.534V89.9739H13.0615Z" fill="#BCA184" fill-opacity="0.8"/>
<path d="M46.2053 15.718C46.2033 18.7505 45.3028 21.7142 43.6176 24.2342C41.9325 26.7542 39.5384 28.7171 36.7385 29.8747C33.9385 31.0322 30.8584 31.3323 27.888 30.7369C24.9177 30.1416 22.1904 28.6776 20.0515 26.5301C17.9126 24.3827 16.458 21.6484 15.872 18.6732C15.2859 15.698 15.5947 12.6157 16.7592 9.81618C17.9237 7.0167 19.8916 4.62593 22.4138 2.94638C24.9361 1.26684 27.8994 0.374019 30.9288 0.380899C32.9388 0.380234 34.9293 0.776811 36.786 1.54789C38.6426 2.31897 40.3289 3.44937 41.7482 4.87427C43.1675 6.29917 44.2918 7.99053 45.0566 9.85135C45.8215 11.7122 46.2118 13.7058 46.2053 15.718ZM41.1032 15.6435C41.0905 13.6256 40.4813 11.6567 39.3524 9.98493C38.2235 8.31314 36.6255 7.01329 34.7598 6.24924C32.8941 5.48518 30.8442 5.29112 28.8685 5.69151C26.8928 6.0919 25.0797 7.06882 23.6578 8.49913C22.2358 9.92944 21.2687 11.7491 20.8783 13.7288C20.4879 15.7085 20.6917 17.7595 21.464 19.6235C22.2363 21.4874 23.5425 23.0807 25.218 24.2026C26.8935 25.3246 28.8633 25.9249 30.8791 25.9278C33.5908 25.9005 36.183 24.8066 38.0959 22.8824C40.0088 20.9582 41.089 18.3581 41.1032 15.6435Z" fill="#BCA184" fill-opacity="0.8"/>
<path d="M74.2371 31.0351C71.207 31.0262 68.2476 30.1175 65.7337 28.424C63.2197 26.7304 61.2643 24.3283 60.1149 21.5216C58.9656 18.715 58.674 15.6301 59.2771 12.6574C59.8802 9.68481 61.3509 6.95816 63.5029 4.8227C65.6549 2.68724 68.3915 1.23901 71.3663 0.661356C74.341 0.083707 77.4201 0.402619 80.2136 1.57771C83.0072 2.75281 85.3896 4.73125 87.0593 7.26254C88.729 9.79382 89.6108 12.7641 89.5931 15.7974C89.586 17.8077 89.1829 19.7969 88.407 21.6512C87.6311 23.5054 86.4976 25.1883 85.0714 26.6036C83.6451 28.0189 81.9541 29.1388 80.095 29.8992C78.236 30.6596 76.2454 31.0456 74.2371 31.0351ZM74.2371 5.4882C72.2211 5.49313 70.2517 6.09545 68.5772 7.21921C66.9026 8.34297 65.598 9.93786 64.8276 11.8028C64.0573 13.6678 63.8557 15.7193 64.2485 17.6987C64.6412 19.6782 65.6105 21.4969 67.0344 22.9256C68.4582 24.3544 70.2727 25.3292 72.2491 25.7271C74.2255 26.125 76.2754 25.9282 78.1403 25.1616C80.0052 24.395 81.6016 23.0928 82.7282 21.4193C83.8549 19.7457 84.4613 17.7757 84.4712 15.7577C84.4493 13.0485 83.3675 10.4559 81.458 8.53598C79.5484 6.61609 76.9632 5.52191 74.257 5.4882H74.2371Z" fill="#BCA184" fill-opacity="0.8"/>
<path d="M33.4401 112.793C33.4401 120.34 33.4897 127.892 33.3805 135.438C33.333 135.936 33.1859 136.419 32.948 136.859C32.7101 137.298 32.3863 137.685 31.9958 137.997C31.4598 138.395 30.1545 138.28 29.5142 137.878C29.179 137.605 28.9042 137.266 28.7077 136.881C28.5111 136.496 28.397 136.074 28.3727 135.642C28.3098 120.433 28.2966 105.228 28.333 90.0282C28.333 88.2893 29.3703 87.2361 30.9287 87.2709C32.4872 87.3056 33.4103 88.3589 33.4103 90.1475C33.4434 97.696 33.4533 105.244 33.4401 112.793Z" fill="#BCA184" fill-opacity="0.8"/>
<path d="M71.7407 112.654C71.7407 105.157 71.7407 97.6597 71.7407 90.1626C71.7407 88.9255 72.0931 87.8126 73.309 87.5244C74.2025 87.3298 75.1364 87.4845 75.9197 87.9567C76.4755 88.3442 76.8031 89.4024 76.8031 90.1675C76.8527 105.268 76.8643 120.366 76.8378 135.463C76.8378 137.327 75.8452 138.405 74.2123 138.36C72.6837 138.315 71.7556 137.257 71.7556 135.458C71.739 127.857 71.7341 120.255 71.7407 112.654Z" fill="#BCA184" fill-opacity="0.8"/>
</svg>
